# xmcd CD database file
#
# Track frame offsets:
#	150
#	11232
#	24282
#	35735
#	48305
#	58597
#	70767
#	84777
#	94767
#	106195
#	116927
#	129232
#
# Disc length: 1882 seconds
#
# Revision: 3
# Processed by: cddbd v1.5PL3 Copyright (c) Steve Scherf et al.
# Submitted via: CDex 1.51
#
DISCID=9407580c
DTITLE=Reno and Smiley - A Variety of Country Songs
DYEAR=1988
DGENRE=Country
TTITLE0=I'm Gone, Long Gone
TTITLE1=Always Be Kind To Your Mother
TTITLE2=There's Another Baby Waiting For Me Down The Line
TTITLE3=Spring Time In Dear Old Dixie
TTITLE4=Never Get To Hold You In My Arms Anymore
TTITLE5=I Can Hear The Angles Singing
TTITLE6=If It Takes Me A Lifetime
TTITLE7=Old Home Place
TTITLE8=It's Grand To Have Someone To Love You
TTITLE9=I Could Cry
TTITLE10=Your Tears Are Just Interest On The Loan
TTITLE11=Since I've Used My Bible For A Roadmap
EXTD=YEAR: 1988
EXTT0=
EXTT1=
EXTT2=
EXTT3=
EXTT4=
EXTT5=
EXTT6=
EXTT7=
EXTT8=
EXTT9=
EXTT10=
EXTT11=
PLAYORDER=
